<svg width="160" height="34" viewBox="0 0 160 34" fill="none" xmlns="http://www.w3.org/2000/svg">
<path d="M5.76766 16.6602C5.80376 17.5745 6.09259 18.3095 6.63416 18.8653C7.19377 19.421 8.01515 19.6989 9.09827 19.6989C9.69399 19.6989 10.2265 19.5913 10.6959 19.3762C11.1652 19.1431 11.5985 18.8025 11.9956 18.3543C13.5301 18.9459 15.3263 19.4569 17.3842 19.8871C16.7885 21.2675 15.7776 22.3432 14.3514 23.114C12.9434 23.8849 11.1111 24.2703 8.85457 24.2703C5.83987 24.2703 3.61043 23.5712 2.16626 22.1728C0.722085 20.7745 0 18.937 0 16.6602C0 14.3834 0.722085 12.5459 2.16626 11.1475C3.61043 9.74921 5.83987 9.05005 8.85457 9.05005C11.1111 9.05005 12.9434 9.43549 14.3514 10.2064C15.7776 10.9772 16.7885 12.0529 17.3842 13.4333C15.7776 13.7739 13.9814 14.2848 11.9956 14.9661C11.5985 14.5179 11.1652 14.1862 10.6959 13.9711C10.2265 13.738 9.69399 13.6215 9.09827 13.6215C8.01515 13.6215 7.19377 13.8994 6.63416 14.4551C6.09259 15.0109 5.80376 15.7459 5.76766 16.6602Z" fill="#FF9130"/>
<path d="M29.489 24.2703C26.4021 24.2703 24.1275 23.5712 22.6653 22.1728C21.2211 20.7566 20.499 18.9011 20.499 16.6064C20.499 14.3655 21.2211 12.5459 22.6653 11.1475C24.1275 9.74921 26.4021 9.05005 29.489 9.05005C31.565 9.05005 33.298 9.39067 34.688 10.0719C36.0961 10.7352 37.1341 11.6405 37.802 12.7879C38.4699 13.9173 38.8039 15.1902 38.8039 16.6064C38.8039 18.919 38.0277 20.7745 36.4752 22.1728C34.9407 23.5712 32.612 24.2703 29.489 24.2703ZM29.5973 19.6989C30.7707 19.6989 31.6462 19.421 32.2239 18.8653C32.8016 18.3095 33.0904 17.5655 33.0904 16.6333C33.0904 15.7549 32.8016 15.0378 32.2239 14.482C31.6462 13.9084 30.7707 13.6215 29.5973 13.6215C28.4239 13.6215 27.5665 13.8994 27.0249 14.4551C26.4833 15.0109 26.2125 15.7369 26.2125 16.6333C26.2125 17.5655 26.4833 18.3095 27.0249 18.8653C27.5665 19.421 28.4239 19.6989 29.5973 19.6989Z" fill="#FF9130"/>
<path d="M53.9495 16.472C54.13 16.454 54.3828 16.4451 54.7077 16.4451C55.9172 16.4451 56.8017 16.7229 57.3614 17.2787C57.939 17.8344 58.2279 18.4888 58.2279 19.2417C58.2279 20.8373 57.4967 22.0742 56.0345 22.9527C54.5723 23.8311 52.6949 24.2703 50.4023 24.2703C48.3985 24.2703 46.6294 23.9297 45.0949 23.2485C43.5785 22.5672 42.4774 21.4199 41.7914 19.8064L42.9558 19.5106C44.6346 19.0983 45.8802 18.7039 46.6925 18.3274C46.9814 18.8832 47.3876 19.3134 47.9111 19.6182C48.4346 19.905 49.1296 20.0485 49.9961 20.0485C50.9709 20.0485 51.711 19.9588 52.2165 19.7795C52.74 19.6003 53.0018 19.3045 53.0018 18.8921C53.0018 18.5695 52.7129 18.3454 52.1353 18.2199C51.5576 18.0944 50.7272 18.0316 49.6441 18.0316H48.1006V14.482H49.0213C50.0141 14.482 50.8084 14.4372 51.4041 14.3476C51.9999 14.2579 52.2977 14.0607 52.2977 13.756C52.2977 13.4512 52.1262 13.2092 51.7832 13.0299C51.4403 12.8506 50.9799 12.761 50.4023 12.761C49.4635 12.761 48.7234 12.9313 48.1818 13.2719C47.6583 13.6126 47.1619 14.1683 46.6925 14.9392C45.2664 14.3476 43.7049 13.9263 42.008 13.6753C43.398 10.6097 46.2864 9.07694 50.673 9.07694C51.9547 9.07694 53.1281 9.26518 54.1932 9.64165C55.2583 10.0002 56.0977 10.5022 56.7115 11.1475C57.3253 11.775 57.6321 12.4831 57.6321 13.2719C57.6321 14.993 56.4046 16.0596 53.9495 16.472Z" fill="#FF9130"/>
<path d="M73.4185 16.714C76.5054 16.714 78.0489 17.691 78.0489 19.6451C78.0489 21.0434 77.5073 22.1191 76.4242 22.872C75.3591 23.625 73.4275 24.0014 70.6295 24.0014H61.477C61.5673 21.9577 61.6124 19.5106 61.6124 16.6602C61.6124 13.8098 61.5673 11.3627 61.477 9.31896H67.0822V9.34585H70.6024C72.2993 9.34585 73.6261 9.48927 74.5829 9.77611C75.5577 10.045 76.2437 10.4394 76.6408 10.9593C77.038 11.4792 77.2365 12.1425 77.2365 12.9492C77.2365 14.7599 75.9639 16.0148 73.4185 16.714ZM67.0822 13.0299V14.9123H69.1402C69.9706 14.9123 70.5572 14.8406 70.9002 14.6972C71.2432 14.5358 71.4147 14.2579 71.4147 13.8635C71.4147 13.5588 71.2342 13.3436 70.8732 13.2182C70.5302 13.0927 69.9525 13.0299 69.1402 13.0299H67.0822ZM69.1402 20.2905C70.1691 20.2905 70.8732 20.2188 71.2523 20.0753C71.6313 19.914 71.8209 19.6361 71.8209 19.2417C71.8209 18.9011 71.6223 18.6501 71.2252 18.4888C70.828 18.3274 70.133 18.2468 69.1402 18.2468H67.0822V20.2905H69.1402Z" fill="#FF9130"/>
<path d="M99.106 9.31896L98.4832 10.8786C96.7682 15.4142 94.9721 19.7885 93.0946 24.0014C92.1198 26.1527 90.7117 27.8737 88.8704 29.1645C87.0291 30.4732 84.7184 31.1006 81.9384 31.0469C81.5954 29.5589 81.3066 28.3936 81.0719 27.551C80.8553 26.7264 80.5664 25.8928 80.2054 25.0502C81.1983 25.2832 82.128 25.3998 82.9945 25.3998C84.4025 25.3998 85.5218 25.104 86.3522 24.5124C85.7023 22.5941 84.9351 20.5325 84.0505 18.3274C83.166 16.1224 81.8843 13.1195 80.2054 9.31896H86.6229C86.8396 10.2153 87.1374 11.2551 87.5165 12.4383C87.8956 13.6215 88.2747 14.7599 88.6538 15.8535C88.7621 16.1941 88.9336 16.714 89.1683 17.4131C89.421 18.0944 89.6196 18.6681 89.764 19.1342L90.468 17.0098C91.822 13.1195 92.6253 10.5559 92.878 9.31896H99.106Z" fill="#FF9130"/>
<path d="M117.878 9.31896C117.787 11.3268 117.742 13.7649 117.742 16.6333C117.742 19.4837 117.787 21.9219 117.878 23.9476H111.948L112.002 21.0165C110.63 21.8233 109.15 22.2266 107.561 22.2266C105.485 22.2266 103.978 21.6261 103.039 20.4249C102.118 19.2059 101.658 17.6193 101.658 15.6652V13.9173C101.658 11.8198 101.622 10.287 101.55 9.31896H107.182C107.092 11.524 107.046 13.3705 107.046 14.8585C107.046 15.8624 107.236 16.5974 107.615 17.0636C108.012 17.5117 108.644 17.7358 109.511 17.7358C109.944 17.7358 110.377 17.6372 110.81 17.44C111.262 17.2249 111.668 16.947 112.029 16.6064C112.029 12.7879 112.002 10.3587 111.948 9.31896H117.878Z" fill="#FF9130"/>
<path d="M138.447 9.31896C138.357 12.0439 138.311 14.491 138.311 16.6602C138.311 18.8294 138.357 21.2765 138.447 24.0014H132.571V19.1073H127.264V24.0014H121.388C121.478 21.9577 121.523 19.5106 121.523 16.6602C121.523 13.8098 121.478 11.3627 121.388 9.31896H127.264V14.2131H132.571V9.31896H138.447Z" fill="#FF9130"/>
<path d="M150.685 24.2703C147.598 24.2703 145.324 23.5712 143.861 22.1728C142.417 20.7566 141.695 18.9011 141.695 16.6064C141.695 14.3655 142.417 12.5459 143.861 11.1475C145.324 9.74921 147.598 9.05005 150.685 9.05005C152.761 9.05005 154.494 9.39067 155.884 10.0719C157.292 10.7352 158.33 11.6405 158.998 12.7879C159.666 13.9173 160 15.1902 160 16.6064C160 18.919 159.224 20.7745 157.671 22.1728C156.137 23.5712 153.808 24.2703 150.685 24.2703ZM150.793 19.6989C151.967 19.6989 152.842 19.421 153.42 18.8653C153.998 18.3095 154.286 17.5655 154.286 16.6333C154.286 15.7549 153.998 15.0378 153.42 14.482C152.842 13.9084 151.967 13.6215 150.793 13.6215C149.62 13.6215 148.763 13.8994 148.221 14.4551C147.679 15.0109 147.409 15.7369 147.409 16.6333C147.409 17.5655 147.679 18.3095 148.221 18.8653C148.763 19.421 149.62 19.6989 150.793 19.6989Z" fill="#FF9130"/>
</svg>
