<svg width="24" height="24" viewBox="0 0 24 24" fill="none" xmlns="http://www.w3.org/2000/svg">
<g>
<path fill-rule="evenodd" clip-rule="evenodd" d="M19.5204 21.0723L23 3.66807L22.9998 3.66838C22.9998 2.5097 21.3939 3.20968 21.3939 3.20968L1.85579 10.8134C1.85579 10.8134 0.931058 11.1272 1.00411 11.7065C1.07716 12.2858 1.83144 12.5513 1.83144 12.5513L6.74444 14.1922L18.5443 6.75813C18.5443 6.75813 19.2257 6.34774 19.2014 6.75813C19.2014 6.75813 19.323 6.8306 18.9578 7.16851C18.593 7.50657 9.68769 15.4481 9.68769 15.4481L9.67022 15.5959L17.6956 21.6999C19.0338 22.2793 19.5204 21.0723 19.5204 21.0723Z" fill="#A7AEB8"/>
<path d="M12.7452 17.9343L9.56938 20.807C9.56938 20.807 9.321 20.9939 9.04948 20.8768L9.65765 15.5409" fill="#A7AEB8"/>
</g>
</svg>
