<svg width="24" height="24" viewBox="0 0 24 24" fill="none" xmlns="http://www.w3.org/2000/svg">
<g opacity="0.5">
<path fill-rule="evenodd" clip-rule="evenodd" d="M23.4495 5.69774C23.6155 5.15175 23.4495 4.74976 22.6545 4.74976H20.0296C19.3616 4.74976 19.0536 5.09675 18.8866 5.47974C18.8866 5.47974 17.5516 8.67567 15.6607 10.7516C15.0487 11.3536 14.7707 11.5446 14.4367 11.5446C14.2697 11.5446 14.0187 11.3536 14.0187 10.8066V5.69774C14.0187 5.04175 13.8347 4.74976 13.2787 4.74976H9.15081C8.73382 4.74976 8.48282 5.05375 8.48282 5.34274C8.48282 5.96373 9.4288 6.10773 9.5258 7.85569V11.6536C9.5258 12.4866 9.3728 12.6376 9.03881 12.6376C8.14883 12.6376 5.98387 9.42666 4.6989 5.75273C4.44991 5.03775 4.19791 4.74976 3.52693 4.74976H0.899981C0.149997 4.74976 0 5.09675 0 5.47974C0 6.16173 0.889981 9.54966 4.14491 14.0306C6.31487 17.0905 9.3698 18.7495 12.1527 18.7495C13.8217 18.7495 14.0277 18.3815 14.0277 17.7465V15.4335C14.0277 14.6965 14.1857 14.5496 14.7147 14.5496C15.1047 14.5496 15.7717 14.7415 17.3296 16.2165C19.1096 17.9655 19.4026 18.7495 20.4046 18.7495H23.0295C23.7795 18.7495 24.1555 18.3815 23.9395 17.6535C23.7015 16.9295 22.8515 15.8785 21.7245 14.6315C21.1126 13.9216 20.1946 13.1566 19.9156 12.7736C19.5266 12.2826 19.6376 12.0636 19.9156 11.6266C19.9156 11.6266 23.1155 7.2007 23.4485 5.69774H23.4495Z" fill="#A7AEB8"/>
</g>
</svg>
